<?xml version="1.0" encoding="utf-8"?>
<!-- Generator: Adobe Illustrator 24.0.2, SVG Export Plug-In . SVG Version: 6.00 Build 0)  -->
<svg version="1.1" id="Capa_1" xmlns="http://www.w3.org/2000/svg" xmlns:xlink="http://www.w3.org/1999/xlink" x="0px" y="0px"
	 viewBox="0 0 81.22 81.22" style="enable-background:new 0 0 81.22 81.22;" xml:space="preserve">
<style type="text/css">
	.st0{fill:#FFFFFF;}
	.st1{fill:#020203;}
</style>
<g id="layer1" transform="translate(0,-270.54165)">
	<path id="rect24-6" class="st0" d="M10.28,270.54h60.65c5.68,0,10.28,4.6,10.28,10.28v60.65c0,5.68-4.6,10.28-10.28,10.28H10.28
		C4.6,351.76,0,347.16,0,341.48v-60.65C0,275.15,4.6,270.54,10.28,270.54z"/>
	<path id="rect24" class="st1" d="M11.57,272.26c-5.46,0-9.85,4.39-9.85,9.85v58.08c0,5.46,4.39,9.85,9.85,9.85h2.29
		c0.67-1.96,1.25-3.69,2-5.82c5.95-16.86,10.09-30.35,9.5-30.94c-0.53-0.53-12.48,3.32-14.65,4.71c-2.13,1.37-3.24,1.37-3.24,0
		c0-1.45,6.98-4.67,13.56-6.25c5.28-1.27,5.36-1.33,6.17-4.33c1.4-5.21,2.91-12.82,2.92-14.76c0.01-1.8-0.07-1.77-2.85,0.95
		c-2.98,2.91-4.69,3.55-4.69,1.74c0-1.38,8.09-8.77,9.6-8.77c1.38,0,1.07,3.44-1.33,15.05c-0.81,3.91-1.35,7.24-1.19,7.39
		c0.15,0.15,4.12-0.41,8.82-1.26c4.7-0.85,9.7-1.54,11.12-1.54c4.11,0,2.52,1.81-2.15,2.44c-6.52,0.88-17,2.94-17.97,3.54
		c-0.49,0.3-2.22,4.95-3.84,10.32c-1.62,5.37-4.97,15.38-7.43,22.24c-0.6,1.68-1.24,3.47-1.87,5.28h53.3c5.46,0,9.85-4.39,9.85-9.85
		v-58.08c0-2.93-1.28-5.55-3.29-7.35c-1.9,0.24-4.51,0.45-7.91,0.59c-15.27,0.66-23.47,1.72-37.63,4.87
		c-15.78,3.51-21.23,5.45-21.55,7.69c-0.32,2.27-2.4,2.21-2.4-0.07v0c0-4.09,4.92-6.08,25.32-10.22
		c15.25-3.09,31.88-4.89,41.58-4.52c-1.21-0.53-2.55-0.83-3.97-0.83H11.57z"/>
</g>
</svg>
