<?xml version="1.0" encoding="utf-8"?>
<!-- Generator: Adobe Illustrator 24.0.2, SVG Export Plug-In . SVG Version: 6.00 Build 0)  -->
<svg version="1.1" id="Capa_1" xmlns="http://www.w3.org/2000/svg" xmlns:xlink="http://www.w3.org/1999/xlink" x="0px"
	y="0px" viewBox="0 0 397.2 98.54" style="enable-background:new 0 0 397.2 98.54;" xml:space="preserve">
	
	<style type="text/css">
		@import url(style.css);		
	</style>

	<g>
		<path id="path21" class="signature"
			d="M239.22,1.01c-0.36-0.05-0.8,0.16-1.62,0.59c-5.7,2.95-8.99,12.17-11.5,32.28l-1.3,10.39
		l-4.44,6.1c-10.17,13.96-22.32,26.85-27.85,29.56c-7.58,3.71-12.84-0.25-15.23-11.46c-1.31-6.15-0.77-19.02,1.11-26.54
		c1.86-7.43,4.87-15.96,8.29-23.47c3.27-7.2,3.77-8.83,2.53-8.35c-1.81,0.69-8.97,18.59-11.57,28.91
		c-4.68,18.58-3.34,34.56,3.43,41.03c3.55,3.39,7.42,3.85,12.23,1.45c5.3-2.64,17.21-15.05,26.65-27.78c2.3-3.1,4.3-5.76,4.43-5.9
		c0.13-0.14,0.1,0.74-0.07,1.96c-0.48,3.4-1.41,17.09-1.67,24.57c-0.13,3.69-0.41,4.35-0.63,11.04c-0.29,8.91-0.22,12.16,0.24,12.16
		c0.35,0,0.64-0.06,0.66-0.14c0.01-0.08,0.06-8.47,0.75-18.62l0.73-10.65l1.96-3.04c1.08-1.67,2.61-3.63,3.39-4.35
		c1.22-1.12,1.6-1.21,2.68-0.63c1.75,0.93,6.22,0.36,10.3-1.33c2.41-0.99,3.55-1.22,4.06-0.8c0.46,0.38,2.61,0.45,6.15,0.2
		c2.99-0.21,7.08-0.46,9.07-0.54c4.05-0.16,6.78-1.31,8.18-3.46c1.06-1.62,3.09-1.66,3.32-0.06c0.3,2.06,0.78,2.56,3.01,3.17
		c1.62,0.44,3.19,0.44,5.44,0.03c2.69-0.5,3.31-0.45,4.17,0.33c0.86,0.78,1.82,0.85,6.47,0.51c3-0.22,7.22-0.46,9.37-0.53
		c4.35-0.15,7.01-1.24,8.46-3.45c1.06-1.62,3.09-1.66,3.32-0.06c0.5,3.47,3.19,4.15,11.65,2.94c20.24-2.89,24.21-4.88,48.62-6.53
		c21.8-1.48,19.14,1.69,18.57,3.17c-0.17,0.45,0.04,0.96,0.47,1.13c1.06,0.4,3.11-0.74,3.11-1.74c0-2.74-8.34-6.41-36.44-2.57
		c-21.96,3-15.31,2.35-37.46,5.13c-5.94,0.75-7.44,0.24-6.88-2.31c0.35-1.57,0.28-1.64-1.64-1.64c-1.76,0-2-0.17-2-1.4
		c0-0.81-0.32-1.4-0.77-1.4c-1.25,0-2.18,1.55-1.81,3.03c0.55,2.17-2.38,3.94-6.64,4.01c-1.84,0.03-5.56,0.38-8.25,0.79
		c-4.79,0.71-6.69,0.46-4.74-0.63c1.24-0.69,1.3-3.6,0.09-4.06c-1.72-0.66-2.52-0.32-3.63,1.56c-1.05,1.79-1.35,1.93-4.95,2.29
		c-4.87,0.49-6.42-0.18-5.9-2.55c0.35-1.57,0.28-1.64-1.64-1.64c-1.76,0-2-0.17-2-1.4c0-0.81-0.32-1.4-0.77-1.4
		c-1.25,0-2.18,1.55-1.81,3.03c0.53,2.1-2.39,3.94-6.37,4.02c-1.69,0.04-5.28,0.39-7.97,0.79c-4.79,0.7-6.68,0.45-4.74-0.64
		c0.58-0.32,0.97-1.21,0.97-2.18c0-1.31-0.3-1.71-1.49-2.01c-1.15-0.29-1.72-0.09-2.52,0.89c-0.56,0.7-1.02,1.68-1.02,2.2
		c0,0.64-1.2,1.4-3.77,2.4c-5.89,2.29-7.5,2.45-9.22,0.93l-1.45-1.29l2.47-2.64c2.66-2.84,2.97-3.65,1.6-4.18
		c-1.61-0.62-3.54,0.86-5.05,3.84c-0.82,1.63-1.65,3.08-1.84,3.23c-0.19,0.15-0.67,0.91-1.07,1.68c-0.4,0.77-1.21,2.03-1.8,2.79
		l-1.07,1.4l0.25-2.79c1.41-15.88,1.29-15.33,4.16-19.84c8.48-13.35,12.32-23.79,12.32-33.45c0-2.91-0.25-4.19-1.01-5.12
		C239.85,1.36,239.58,1.05,239.22,1.01L239.22,1.01z M238.83,2.82c0.84-0.01,1.1,1.48,0.99,4.67c-0.25,7.54-2.64,15.59-6.96,23.48
		c-2.3,4.21-6.04,10.1-6.04,9.53c0-0.16,0.52-4.06,1.15-8.65c2.13-15.5,4.5-23.02,8.67-27.44C237.61,3.36,238.32,2.82,238.83,2.82z
		 M132.4,35.5c-0.68,0-1.11,1.3-2,5.95c-0.42,2.19-1.47,5.65-2.34,7.68c-1.35,3.15-1.78,3.69-2.99,3.7
		c-1.79,0.01-3.82,1.42-4.46,3.08c-0.6,1.57-5.19,3.25-9.05,3.31c-3.57,0.06-4.17-0.67-2.67-3.21c0.66-1.11,1.05-2.25,0.88-2.52
		c-0.59-0.96-6.17-0.35-7.91,0.86c-1.06,0.74-3.64,1.46-7.24,2.03c-11.76,1.84-12.49,1.71-10.48-1.82c1.26-2.22,1.63-3.95,0.84-3.95
		c-0.23,0-1.51,1.27-2.84,2.81c-3.07,3.56-4.95,4.85-5.81,3.99c-0.47-0.47-0.1-1.4,1.43-3.62c1.13-1.64,2.06-3.16,2.06-3.37
		c0-0.92-1.45-0.22-3.57,1.74c-1.26,1.16-4.04,2.9-6.21,3.74c-4.93,2.2-10.14,3.85-14.96,4.85c-6.22,1.27-7.98,0.6-9.65,0.05
		c-3.22-1.06-2.33-2.8,1.42-2.8c1.08,0,1.63-0.28,1.63-0.84c0-1.35-3.38-1.02-7.92,0.79c-3.72,1.48-5.74,1.96-7.53,1.79
		c-0.35-0.03-0.91-0.82-1.23-1.74c-0.52-1.49-0.84-1.68-2.82-1.68c-2.59,0-5.09,0.98-5.09,2c0,2.5,2.03,3.19,4.95,1.67
		c1.4-0.73,1.6-0.7,2.21,0.28c0.88,1.42,4.21,1.43,7.77,0.02l2.67-1.05l1,1.32c0.55,0.73,1.81,1.55,2.79,1.84
		c2.07,0.6,1.63,1.29,10.48-0.52c6.04-1.39,5.51-0.92,17.6-5.72c0.89-0.89,1.29-0.6,1.29,0.93c0,2.61,2.16,2.93,5.21,0.78
		c1.39-0.98,1.46-0.98,2.1,0.05c0.84,1.35,4.51,1.41,11.5,0.19c3.95-0.69,5.07-0.72,5.41-0.17c-4.08,4.68,3.31,1.3,3.31,0.51
		c0-0.77,4.4-3.64,4.86-3.17c0.2,0.2,0.07,0.67-0.29,1.03c-1.02,1.02-0.78,3.13,0.42,3.77c1.75,0.93,7.08,0.67,10.64-0.53
		c1.82-0.61,3.68-0.97,4.13-0.79c0.46,0.17,1.31,0.06,1.9-0.26c0.73-0.39,1.26-0.39,1.64-0.01s1.28,0.2,2.74-0.54
		c1.61-0.82,3.75-1.19,8.18-1.41l6.01-0.3V58c0,0.97,0.42,2.22,0.93,2.78l0,0c1.2,1.33,2.82,1.29,5.15-0.13
		c1.56-0.95,2.17-1.05,3.58-0.56c4.22,1.47,13.74,0.24,16.7-2.16c2.05-1.66,0.8-2-2.36-0.64c-4.19,1.8-8.12,2.3-12.02,1.53
		l-3.3-0.65l0.17-2.34c0.14-1.97-0.05-2.48-1.22-3.25c-2.03-1.33-5.51-0.93-6.23,0.72c-0.68,1.56-1.17,1.67-9.08,1.97
		c-7.13,0.28-7.03,0.35-5.4-4.16C132.91,41.16,134.02,35.5,132.4,35.5L132.4,35.5z M146.81,52.99c0.24,0.02,0.51,0.07,0.81,0.14
		c1.84,0.46,2.74,1.53,2.29,2.7c-0.48,1.24-1.33,1.11-3.29-0.49C144.93,53.95,145.14,52.84,146.81,52.99z M249,53.62
		c0.19,0.06,0.21,0.35-0.09,0.84c-0.2,0.33-0.64,0.6-0.96,0.6c-0.37,0-0.33-0.32,0.11-0.85C248.45,53.75,248.81,53.57,249,53.62
		L249,53.62z M288.69,53.62c0.19,0.06,0.21,0.35-0.09,0.84c-0.2,0.33-0.64,0.6-0.96,0.6c-0.37,0-0.33-0.32,0.11-0.85
		C288.13,53.75,288.5,53.57,288.69,53.62z M124.38,54.5c0.44,0,0.7,0.29,0.58,0.65c-0.31,0.92-2.4,2.23-2.85,1.78
		C121.6,56.41,123.39,54.5,124.38,54.5z M144.21,55.65l1.95,1.49c1.81,1.38,1.88,1.54,0.95,2.22c-2.01,1.47-3.65,0.24-3.15-2.38
		L144.21,55.65z M28.26,58c0.67,0.01,0.53,0.25-0.46,0.82c-1.64,0.94-2.24,1.03-2.24,0.34C25.56,58.57,26.95,57.98,28.26,58z" />
		<path id="path21-3" class="signature" d="M1.74,94.16c0-2.12,0.37-3.4,1.04-3.66c0.57-0.22,1.27-1.44,1.55-2.72
		c0.28-1.28,2.82-8.86,5.64-16.86c5.84-16.56,9.91-29.8,9.33-30.38c-0.52-0.52-12.26,3.26-14.38,4.63c-2.09,1.34-3.18,1.34-3.18,0
		c0-1.43,6.86-4.58,13.31-6.13c5.18-1.24,5.27-1.3,6.06-4.25c1.38-5.11,2.86-12.58,2.87-14.49c0.01-1.77-0.07-1.74-2.8,0.93
		c-2.93,2.86-4.61,3.48-4.61,1.71c0-1.36,7.94-8.61,9.43-8.61c1.35,0,1.05,3.38-1.31,14.78c-0.8,3.84-1.32,7.11-1.17,7.26
		s4.05-0.4,8.66-1.24c4.61-0.83,9.53-1.51,10.92-1.51c4.04,0,2.48,1.78-2.11,2.39c-6.4,0.86-16.69,2.89-17.64,3.48
		c-0.48,0.3-2.18,4.86-3.77,10.13c-1.59,5.28-4.88,15.1-7.29,21.83c-2.42,6.73-5.33,15.33-6.48,19.1
		C3.51,98.16,1.74,99.73,1.74,94.16z M1,15.55c0-4.02,4.83-5.97,24.86-10.03C41.11,2.43,57.78,0.65,67.22,1.1
		c9.17,0.44,5.87,1.7-5.76,2.2C46.47,3.95,38.42,4.99,24.52,8.08C9.03,11.53,3.67,13.43,3.36,15.63C3.04,17.86,1,17.8,1,15.55
		L1,15.55z" />
	</g>
</svg>